<svg xmlns="http://www.w3.org/2000/svg" viewBox="0 0 512 512" width="512" height="512">
  <defs>
    <linearGradient id="crimsonGrad" x1="0%" y1="0%" x2="100%" y2="100%">
      <stop offset="0%" stop-color="#b03e5c" />
      <stop offset="100%" stop-color="#8a2d46" />
    </linearGradient>
  </defs>
  <!-- Background with slightly rounded corporate smooth squares -->
  <rect width="512" height="512" rx="128" fill="url(#crimsonGrad)" />
  
  <!-- Outer glowing orbit ring representation -->
  <circle cx="256" cy="256" r="160" fill="none" stroke="#ffffff" stroke-width="24" stroke-opacity="0.15" />
  
  <!-- Central Sync Redmine layout -->
  <g transform="translate(128, 128) scale(1)">
    <!-- Synchronize Arrows shape -->
    <path d="M 128 40 A 88 88 0 0 1 216 128 L 244 128 L 204 176 L 164 128 L 192 128 A 64 64 0 0 0 128 64 A 64 64 0 0 0 80 84 L 62 66 A 88 88 0 0 1 128 40 Z" fill="#ffffff" />
    <path d="M 128 216 A 88 88 0 0 1 40 128 L 12 128 L 52 80 L 92 128 L 64 128 A 64 64 0 0 0 128 192 A 64 64 0 0 0 176 172 L 194 190 A 88 88 0 0 1 128 216 Z" fill="#ffffff" />
    
    <!-- Bold Letter R representing Redmine / Routing in the center -->
    <text x="128" y="148" font-family="'Inter', 'Segoe UI', sans-serif" font-weight="900" font-size="76" fill="#ffffff" text-anchor="middle" dominant-baseline="middle">R</text>
  </g>
</svg>
